RSLDJ_XZ.mot
version=1
datacolumns 20
datarows 40
range 0.760000 1.150000
inDegrees=yes
endheader
time	pelvis_tilt	pelvis_list	pelvis_rotation	hip_flexion_r	hip_adduction_r	hip_rotation_r	knee_angle_r	ankle_angle_r	hip_flexion_l	hip_adduction_l	hip_rotation_l	knee_angle_l	ankle_angle_l	pelvis_tx	pelvis_ty	pelvis_tz	lumbar_bending	lumbar_rotation	lumbar_extension
0.760000	-17.194182	13.894145	-2.788267	31.235695	-6.518494	-3.900489	-22.680007	-7.124693	38.629517	5.965757	-3.337645	-88.415051	6.623349	0.146711	1.296752	0.307567	-0.000000	-0.000000	0.000000
0.770000	-17.261273	14.325375	-2.606637	31.690919	-7.022899	-3.859476	-20.752117	-8.574826	38.602676	6.731096	-3.198043	-89.138999	7.021121	0.153105	1.287824	0.308148	-0.000000	-0.000000	0.000000
0.780000	-17.279035	14.727365	-2.402318	32.055452	-7.539234	-3.859715	-19.104919	-10.136253	38.615497	7.426990	-3.052349	-89.890588	7.540920	0.159420	1.277948	0.308780	-0.000000	-0.000000	0.000000
0.790000	-17.258019	15.091416	-2.175716	32.338432	-8.046626	-3.878904	-17.737425	-11.724238	38.697755	8.029580	-2.905285	-90.675311	8.167412	0.165631	1.267120	0.309458	-0.000000	-0.000000	0.000000
0.800000	-17.225597	15.416795	-1.919686	32.568941	-8.534933	-3.897576	-16.636684	-13.274419	38.893636	8.529101	-2.761670	-91.497963	8.849691	0.171727	1.255322	0.310172	-0.000000	-0.000000	0.000000
0.810000	-17.213103	15.707740	-1.624487	32.783433	-9.003938	-3.901798	-15.786188	-14.748967	39.247784	8.927904	-2.634325	-92.361997	9.502952	0.177709	1.242532	0.310906	-0.000000	-0.000000	0.000000
0.820000	-17.240249	15.969969	-1.282032	33.008750	-9.461049	-3.883704	-15.169770	-16.141019	39.789497	9.237197	-2.544250	-93.269559	10.028192	0.183574	1.228722	0.311647	-0.000000	-0.000000	0.000000
0.830000	-17.308625	16.206922	-0.888311	33.253012	-9.916464	-3.839800	-14.770939	-17.471207	40.526289	9.470933	-2.517997	-94.222723	10.343625	0.189312	1.213868	0.312387	-0.000000	-0.000000	0.000000
0.840000	-17.408461	16.417159	-0.443927	33.509898	-10.377152	-3.768493	-14.570273	-18.769231	41.451111	9.638467	-2.585796	-95.226203	10.413885	0.194907	1.197948	0.313130	-0.000000	-0.000000	0.000000
0.850000	-17.530932	16.594813	0.047099	33.769754	-10.843723	-3.667896	-14.544776	-20.040719	42.555571	9.740944	-2.775361	-96.290888	10.266902	0.200347	1.180946	0.313886	-1.655387	-8.439188	4.401110
0.860000	-17.675527	16.730690	0.578109	34.027251	-11.308900	-3.532737	-14.670930	-21.235960	43.838001	9.771193	-3.094414	-97.436287	9.992467	0.205622	1.162855	0.314666	-1.885674	-8.546907	4.357487
0.870000	-17.851091	16.811092	1.138099	34.285257	-11.753838	-3.350970	-14.932841	-22.228868	45.304781	9.713719	-3.516475	-98.688110	9.712179	0.210723	1.143691	0.315470	-1.950289	-8.531778	4.197384
0.880000	-18.076947	16.814401	1.708857	34.562491	-12.141454	-3.106309	-15.335699	-22.801890	46.971546	9.542784	-3.990410	-100.069777	9.536199	0.215636	1.123502	0.316286	-2.306481	-8.538267	4.247319
0.890000	-18.382165	16.706584	2.262055	34.901002	-12.408693	-2.788075	-15.917427	-22.660092	48.861960	9.218561	-4.460782	-101.591435	9.541637	0.220345	1.102390	0.317090	-2.618647	-8.456879	4.320144
0.900000	-18.795836	16.439702	2.756532	35.362930	-12.463968	-2.399714	-16.749499	-21.504587	50.996327	8.686771	-4.875203	-103.239609	9.772042	0.224820	1.080532	0.317857	-2.853469	-8.243694	4.436635
0.910000	-19.334475	15.960024	3.138673	36.021038	-12.197811	-1.958518	-17.926023	-19.141938	53.376164	7.889520	-5.183651	-104.968777	10.237424	0.229019	1.058196	0.318567	-2.974855	-7.844619	4.609536
0.920000	-19.998542	15.225979	3.350129	36.953716	-11.507841	-1.489479	-19.547122	-15.575383	55.977402	6.787871	-5.343047	-106.697810	10.912749	0.232895	1.035739	0.319206	-2.949065	-7.211698	4.840084
0.930000	-20.777090	14.226674	3.344485	38.240488	-10.330965	-1.024836	-21.702126	-11.039922	58.752698	5.388825	-5.324005	-108.315924	11.744532	0.236411	1.013589	0.319759	-2.755187	-6.320473	5.120798
0.940000	-21.651204	12.992738	3.108064	39.947711	-8.674602	-0.607810	-24.453625	-5.962032	61.635158	3.766821	-5.115063	-109.698562	12.666251	0.239561	0.992204	0.320203	-2.399071	-5.181321	5.436650
0.950000	-22.592738	11.599113	2.673146	42.105134	-6.638228	-0.283950	-27.818860	-0.853339	64.540444	2.068189	-4.728048	-110.727494	13.610337	0.242371	0.972020	0.320510	-1.921457	-3.845184	5.763066
0.960000	-23.558767	10.159484	2.112107	44.679145	-4.411587	-0.078930	-31.745887	3.819204	67.366369	0.487876	-4.209345	-111.308901	14.505654	0.244891	0.953400	0.320655	-1.390588	-2.403352	6.062059
0.970000	-24.487530	8.804612	1.515434	47.552201	-2.237326	0.016987	-36.091821	7.737489	69.995939	-0.780406	-3.643707	-111.388523	15.271009	0.247173	0.936608	0.320626	-0.882963	-0.972156	6.281660
0.980000	-25.307923	7.643914	0.966633	50.528315	-0.343884	0.041180	-40.622037	10.777167	72.318234	-1.600996	-3.127297	-110.965487	15.828030	0.249258	0.921797	0.320419	-0.464076	0.340341	6.368685
0.990000	-25.961247	6.732900	0.519481	53.374786	1.121101	0.033390	-45.046832	12.986527	74.262227	-1.935427	-2.725897	-110.100144	16.126354	0.251182	0.909006	0.320043	-0.172251	1.465151	6.291173
1.000000	-26.418079	6.068532	0.183034	55.881761	2.122301	0.013187	-49.089270	14.522264	75.817063	-1.848915	-2.456588	-108.908720	16.153052	0.252985	0.898168	0.319520	-0.007416	2.379183	6.052160
1.010000	-26.681773	5.607531	-0.074123	57.911779	2.722196	-0.026522	-52.553210	15.579174	77.027578	-1.482390	-2.296568	-107.545360	15.928071	0.254722	0.889128	0.318887	0.066152	3.092204	5.687582
1.020000	-26.783839	5.290596	-0.300039	59.423144	3.036006	-0.109300	-55.359399	16.338113	77.975419	-1.002208	-2.203317	-106.176954	15.498262	0.256480	0.881673	0.318191	0.101213	3.629462	5.256209
1.030000	-26.772983	5.063537	-0.531225	60.460801	3.180708	-0.254091	-57.539002	16.931430	78.754027	-0.548977	-2.140097	-104.955592	14.923668	0.258375	0.875571	0.317484	0.144382	4.017112	4.825524
1.040000	-26.694857	4.891782	-0.777117	61.117233	3.239403	-0.454440	-59.196343	17.424431	79.439488	-0.206250	-2.097124	-103.995757	14.256956	0.260537	0.870622	0.316822	0.222009	4.271988	4.451461
1.050000	-26.569186	4.764420	-1.022384	61.481422	3.250502	-0.671630	-60.461346	17.823265	80.066049	0.002514	-2.093457	-103.363272	13.534153	0.263059	0.866683	0.316261	0.339635	4.398078	4.158054
1.060000	-26.381660	4.685923	-1.239081	61.604128	3.216691	-0.846296	-61.448111	18.103229	80.622772	0.096554	-2.160148	-103.076629	12.780443	0.265975	0.863681	0.315852	0.488812	4.392129	3.932291
1.070000	-26.099613	4.661702	-1.400107	61.496618	3.123289	-0.922720	-62.229574	18.237945	81.077075	0.113038	-2.320789	-103.116416	12.020191	0.269253	0.861608	0.315627	0.655051	4.255083	3.740859
1.080000	-25.695800	4.690927	-1.491595	61.150093	2.956014	-0.873594	-62.831718	18.219846	81.403934	0.084790	-2.581783	-103.436922	11.286716	0.272814	0.860497	0.315593	0.825942	3.997982	3.552769
1.090000	-25.162691	4.770870	-1.520152	60.555124	2.710123	-0.709127	-63.242322	18.062152	81.600290	0.028689	-2.931369	-103.975301	10.623881	0.276560	0.860417	0.315732	0.996686	3.637001	3.352595
1.100000	-24.520266	4.901237	-1.509205	59.718171	2.390994	-0.469253	-63.425822	17.784718	81.690525	-0.052466	-3.341579	-104.659180	10.074938	0.280404	0.861448	0.316008	1.168756	3.187595	3.148988
1.110000	-23.816144	5.081842	-1.487510	58.669756	2.012000	-0.213087	-63.339043	17.406660	81.724967	-0.161320	-3.773046	-105.415806	9.672636	0.284295	0.863657	0.316378	1.344450	2.664404	2.977045
1.120000	-23.107446	5.310853	-1.478684	57.452238	1.591004	-0.007823	-62.944900	16.948924	81.760535	-0.298406	-4.184359	-106.181025	9.437581	0.288224	0.867084	0.316800	1.523939	2.080748	2.882891
1.130000	-22.434549	5.587854	-1.494036	56.097046	1.142912	0.088063	-62.221630	16.432609	81.834323	-0.456170	-4.542840	-106.905378	9.374001	0.292204	0.871714	0.317248	1.704919	1.444673	2.899308
1.140000	-21.807686	5.916108	-1.525847	54.611206	0.669677	0.040557	-61.164922	15.873282	81.952374	-0.612628	-4.831020	-107.556864	9.458934	0.296263	0.877481	0.317722	1.880282	0.757068	3.032380
1.150000	-21.210579	6.300865	-1.544463	52.977477	0.154468	-0.154971	-59.782235	15.279797	82.096197	-0.729048	-5.046190	-108.120720	9.636560	0.300433	0.884268	0.318238	2.035375	0.013965	3.263169
